<svg width="369.94" height="20.138" version="1.1" xmlns="http://www.w3.org/2000/svg" xmlns:cc="http://creativecommons.org/ns#" xmlns:dc="http://purl.org/dc/elements/1.1/" xmlns:rdf="http://www.w3.org/1999/02/22-rdf-syntax-ns#" xmlns:xlink="http://www.w3.org/1999/xlink">
 <metadata>
  <rdf:RDF>
   <cc:Work rdf:about="">
    <dc:format>image/svg+xml</dc:format>
    <dc:type rdf:resource="http://purl.org/dc/dcmitype/StillImage"/>
    <cc:license rdf:resource="MIT (c) L3D &lt;l3d@c3woc.de&gt;"/>
    <dc:creator>
     <cc:Agent>
      <dc:title>3D &lt;l3d@c3woc.de&gt;</dc:title>
     </cc:Agent>
    </dc:creator>
    <dc:rights>
     <cc:Agent>
      <dc:title>MIT License</dc:title>
     </cc:Agent>
    </dc:rights>
   </cc:Work>
  </rdf:RDF>
 </metadata>
 <defs>
  <linearGradient id="l3d_a" x1="370.13" x2="370.13" y1="-.40371" y2="7.3601" gradientUnits="userSpaceOnUse">
   <stop stop-color="#ff0" stop-opacity=".38431" offset="0"/>
   <stop stop-color="#ff0" stop-opacity="0" offset="1"/>
  </linearGradient>
 </defs>
 <clipPath id="a">
  <rect width="102" height="20" rx="3" fill="#fff"/>
 </clipPath>
 <g>
  <path d="m366.56 0h-292.56v20h292.56c1.8715 0 3.3782-1.5067 3.3782-3.3782v-13.244c0-1.8715-1.5067-3.3782-3.3782-3.3782z" fill="#28a745" style="paint-order:stroke fill markers"/>
  <path d="m3.3782 0h86.558v20h-86.558c-1.8715 0-3.3782-1.5067-3.3782-3.3782v-13.244c0-1.8715 1.5067-3.3782 3.3782-3.3782z" fill="#4d4d4d" style="paint-order:stroke fill markers"/>
  <rect x="-.002218" y="-.023054" width="369.97" height="20.027" ry="3.4343" fill="url(#l3d_a)" style="paint-order:stroke fill markers"/>
 </g>
 <g transform="translate(12)">
  <g transform="translate(.0053714 1.1929)" fill="#010101" fill-opacity=".3" stroke-width=".1" style="font-feature-settings:normal;font-variant-caps:normal;font-variant-ligatures:normal;font-variant-numeric:normal" aria-label="Marketplace">
   <path d="m7.064 5.9564h1.6167l2.0464 5.457 2.0571-5.457h1.6167v8.019h-1.0581v-7.0415l-2.0679 5.5h-1.0903l-2.0679-5.5v7.0415h-1.0527z"/>
   <path d="m19.246 10.952q-1.1978 0-1.6597 0.27392-0.46191 0.27393-0.46191 0.93457 0 0.52637 0.34375 0.83789 0.34912 0.30615 0.94531 0.30615 0.82178 0 1.3159-0.58008 0.49951-0.58545 0.49951-1.5522v-0.22021zm1.9712-0.4082v3.4321h-0.98828v-0.91309q-0.33838 0.54785-0.84326 0.81104-0.50488 0.25781-1.2354 0.25781-0.92383 0-1.4717-0.51562-0.54248-0.521-0.54248-1.3911 0-1.0151 0.67676-1.5308 0.68213-0.51562 2.0303-0.51562h1.3857v-0.09668q0-0.68213-0.45117-1.0527-0.4458-0.37598-1.2568-0.37598-0.51562 0-1.0044 0.12354-0.48877 0.12354-0.93994 0.37061v-0.91309q0.54248-0.20947 1.0527-0.31152 0.51025-0.10742 0.99365-0.10742 1.3052 0 1.9497 0.67676 0.64453 0.67676 0.64453 2.0518z"/>
   <path d="m26.738 8.8837q-0.1665-0.09668-0.36523-0.13965-0.19336-0.04834-0.42969-0.04834-0.83789 0-1.2891 0.54785-0.4458 0.54248-0.4458 1.563v3.1689h-0.99365v-6.0156h0.99365v0.93457q0.31152-0.54785 0.81104-0.81104 0.49951-0.26855 1.2139-0.26855 0.10205 0 0.22559 0.016113 0.12354 0.010742 0.27393 0.037598z"/>
   <path d="m27.737 5.618h0.99365v4.936l2.9487-2.5942h1.2622l-3.1904 2.8145 3.3247 3.2012h-1.2891l-3.0562-2.938v2.938h-0.99365z"/>
   <path d="m38.898 10.721v0.4834h-4.5439q0.06445 1.0205 0.6123 1.5576 0.55322 0.53174 1.5361 0.53174 0.56934 0 1.1011-0.13965 0.53711-0.13965 1.0635-0.41894v0.93457q-0.53174 0.22559-1.0903 0.34375t-1.1333 0.11816q-1.4395 0-2.2827-0.83789-0.83789-0.83789-0.83789-2.2666 0-1.4771 0.79492-2.3418 0.80029-0.87012 2.1538-0.87012 1.2139 0 1.9175 0.78418 0.70898 0.77881 0.70898 2.1216zm-0.98828-0.29004q-0.010742-0.81104-0.45654-1.2944-0.44043-0.4834-1.1709-0.4834-0.82715 0-1.3267 0.46729-0.49414 0.46729-0.56934 1.3159z"/>
   <path d="m41.498 6.2518v1.708h2.0356v0.76807h-2.0356v3.2656q0 0.73584 0.19873 0.94531 0.2041 0.20947 0.82178 0.20947h1.0151v0.82715h-1.0151q-1.144 0-1.5791-0.42432-0.43506-0.42969-0.43506-1.5576v-3.2656h-0.7251v-0.76807h0.7251v-1.708z"/>
   <path d="m45.79 13.073v3.1904h-0.99365v-8.3037h0.99365v0.91309q0.31152-0.53711 0.78418-0.79492 0.47803-0.26318 1.1387-0.26318 1.0957 0 1.7778 0.87012 0.6875 0.87012 0.6875 2.2881 0 1.418-0.6875 2.2881-0.68213 0.87012-1.7778 0.87012-0.66064 0-1.1387-0.25781-0.47266-0.26318-0.78418-0.80029zm3.3623-2.1001q0-1.0903-0.45117-1.708-0.4458-0.62305-1.23-0.62305-0.78418 0-1.2354 0.62305-0.4458 0.61768-0.4458 1.708t0.4458 1.7134q0.45117 0.61768 1.2354 0.61768 0.78418 0 1.23-0.61768 0.45117-0.62305 0.45117-1.7134z"/>
   <path d="m51.816 5.618h0.98828v8.3574h-0.98828z"/>
   <path d="m57.606 10.952q-1.1978 0-1.6597 0.27392-0.46191 0.27393-0.46191 0.93457 0 0.52637 0.34375 0.83789 0.34912 0.30615 0.94531 0.30615 0.82178 0 1.3159-0.58008 0.49951-0.58545 0.49951-1.5522v-0.22021zm1.9712-0.4082v3.4321h-0.98828v-0.91309q-0.33838 0.54785-0.84326 0.81104-0.50488 0.25781-1.2354 0.25781-0.92383 0-1.4717-0.51562-0.54248-0.521-0.54248-1.3911 0-1.0151 0.67676-1.5308 0.68213-0.51562 2.0303-0.51562h1.3857v-0.09668q0-0.68213-0.45117-1.0527-0.4458-0.37598-1.2568-0.37598-0.51562 0-1.0044 0.12354-0.48877 0.12354-0.93994 0.37061v-0.91309q0.54248-0.20947 1.0527-0.31152 0.51025-0.10742 0.99365-0.10742 1.3052 0 1.9497 0.67676t0.64453 2.0518z"/>
   <path d="m65.942 8.1908v0.92383q-0.41894-0.23096-0.84326-0.34375-0.41894-0.11816-0.84863-0.11816-0.96143 0-1.4932 0.6123-0.53174 0.60693-0.53174 1.708 0 1.1011 0.53174 1.7134 0.53174 0.60693 1.4932 0.60693 0.42969 0 0.84863-0.11279 0.42432-0.11816 0.84326-0.34912v0.91309q-0.41357 0.19336-0.85938 0.29004-0.44043 0.09668-0.93994 0.09668-1.3589 0-2.1592-0.854t-0.80029-2.3042q0-1.4717 0.80566-2.3149 0.81104-0.84326 2.2183-0.84326 0.45654 0 0.8916 0.09668 0.43506 0.091309 0.84326 0.2793z"/>
   <path d="m72.806 10.721v0.4834h-4.5439q0.06445 1.0205 0.6123 1.5576 0.55322 0.53174 1.5361 0.53174 0.56934 0 1.1011-0.13965 0.53711-0.13965 1.0635-0.41894v0.93457q-0.53174 0.22559-1.0903 0.34375t-1.1333 0.11816q-1.4395 0-2.2827-0.83789-0.83789-0.83789-0.83789-2.2666 0-1.4771 0.79492-2.3418 0.80029-0.87012 2.1538-0.87012 1.2139 0 1.9175 0.78418 0.70898 0.77881 0.70898 2.1216zm-0.98828-0.29004q-0.01074-0.81104-0.45654-1.2944-0.44043-0.4834-1.1709-0.4834-0.82715 0-1.3267 0.46729-0.49414 0.46729-0.56934 1.3159z"/>
  </g>
  <g transform="translate(3.9475e-7 .1778)" fill="#fff" style="font-feature-settings:normal;font-variant-caps:normal;font-variant-ligatures:normal;font-variant-numeric:normal" aria-label="Marketplace">
   <path d="m7.064 5.9564h1.6167l2.0464 5.457 2.0571-5.457h1.6167v8.019h-1.0581v-7.0415l-2.0679 5.5h-1.0903l-2.0679-5.5v7.0415h-1.0527z"/>
   <path d="m19.246 10.952q-1.1978 0-1.6597 0.27392-0.46191 0.27393-0.46191 0.93457 0 0.52637 0.34375 0.83789 0.34912 0.30615 0.94531 0.30615 0.82178 0 1.3159-0.58008 0.49951-0.58545 0.49951-1.5522v-0.22021zm1.9712-0.4082v3.4321h-0.98828v-0.91309q-0.33838 0.54785-0.84326 0.81104-0.50488 0.25781-1.2354 0.25781-0.92383 0-1.4717-0.51562-0.54248-0.521-0.54248-1.3911 0-1.0151 0.67676-1.5308 0.68213-0.51562 2.0303-0.51562h1.3857v-0.09668q0-0.68213-0.45117-1.0527-0.4458-0.37598-1.2568-0.37598-0.51562 0-1.0044 0.12354-0.48877 0.12354-0.93994 0.37061v-0.91309q0.54248-0.20947 1.0527-0.31152 0.51025-0.10742 0.99365-0.10742 1.3052 0 1.9497 0.67676 0.64453 0.67676 0.64453 2.0518z"/>
   <path d="m26.738 8.8837q-0.1665-0.09668-0.36523-0.13965-0.19336-0.04834-0.42969-0.04834-0.83789 0-1.2891 0.54785-0.4458 0.54248-0.4458 1.563v3.1689h-0.99365v-6.0156h0.99365v0.93457q0.31152-0.54785 0.81104-0.81104 0.49951-0.26855 1.2139-0.26855 0.10205 0 0.22559 0.016113 0.12354 0.010742 0.27393 0.037598z"/>
   <path d="m27.737 5.618h0.99365v4.936l2.9487-2.5942h1.2622l-3.1904 2.8145 3.3247 3.2012h-1.2891l-3.0562-2.938v2.938h-0.99365z"/>
   <path d="m38.898 10.721v0.4834h-4.5439q0.06445 1.0205 0.6123 1.5576 0.55322 0.53174 1.5361 0.53174 0.56934 0 1.1011-0.13965 0.53711-0.13965 1.0635-0.41894v0.93457q-0.53174 0.22559-1.0903 0.34375t-1.1333 0.11816q-1.4395 0-2.2827-0.83789-0.83789-0.83789-0.83789-2.2666 0-1.4771 0.79492-2.3418 0.80029-0.87012 2.1538-0.87012 1.2139 0 1.9175 0.78418 0.70898 0.77881 0.70898 2.1216zm-0.98828-0.29004q-0.010742-0.81104-0.45654-1.2944-0.44043-0.4834-1.1709-0.4834-0.82715 0-1.3267 0.46729-0.49414 0.46729-0.56934 1.3159z"/>
   <path d="m41.498 6.2518v1.708h2.0356v0.76807h-2.0356v3.2656q0 0.73584 0.19873 0.94531 0.2041 0.20947 0.82178 0.20947h1.0151v0.82715h-1.0151q-1.144 0-1.5791-0.42432-0.43506-0.42969-0.43506-1.5576v-3.2656h-0.7251v-0.76807h0.7251v-1.708z"/>
   <path d="m45.79 13.073v3.1904h-0.99365v-8.3037h0.99365v0.91309q0.31152-0.53711 0.78418-0.79492 0.47803-0.26318 1.1387-0.26318 1.0957 0 1.7778 0.87012 0.6875 0.87012 0.6875 2.2881 0 1.418-0.6875 2.2881-0.68213 0.87012-1.7778 0.87012-0.66064 0-1.1387-0.25781-0.47266-0.26318-0.78418-0.80029zm3.3623-2.1001q0-1.0903-0.45117-1.708-0.4458-0.62305-1.23-0.62305-0.78418 0-1.2354 0.62305-0.4458 0.61768-0.4458 1.708t0.4458 1.7134q0.45117 0.61768 1.2354 0.61768 0.78418 0 1.23-0.61768 0.45117-0.62305 0.45117-1.7134z"/>
   <path d="m51.816 5.618h0.98828v8.3574h-0.98828z"/>
   <path d="m57.606 10.952q-1.1978 0-1.6597 0.27392-0.46191 0.27393-0.46191 0.93457 0 0.52637 0.34375 0.83789 0.34912 0.30615 0.94531 0.30615 0.82178 0 1.3159-0.58008 0.49951-0.58545 0.49951-1.5522v-0.22021zm1.9712-0.4082v3.4321h-0.98828v-0.91309q-0.33838 0.54785-0.84326 0.81104-0.50488 0.25781-1.2354 0.25781-0.92383 0-1.4717-0.51562-0.54248-0.521-0.54248-1.3911 0-1.0151 0.67676-1.5308 0.68213-0.51562 2.0303-0.51562h1.3857v-0.09668q0-0.68213-0.45117-1.0527-0.4458-0.37598-1.2568-0.37598-0.51562 0-1.0044 0.12354-0.48877 0.12354-0.93994 0.37061v-0.91309q0.54248-0.20947 1.0527-0.31152 0.51025-0.10742 0.99365-0.10742 1.3052 0 1.9497 0.67676t0.64453 2.0518z"/>
   <path d="m65.942 8.1908v0.92383q-0.41894-0.23096-0.84326-0.34375-0.41894-0.11816-0.84863-0.11816-0.96143 0-1.4932 0.6123-0.53174 0.60693-0.53174 1.708 0 1.1011 0.53174 1.7134 0.53174 0.60693 1.4932 0.60693 0.42969 0 0.84863-0.11279 0.42432-0.11816 0.84326-0.34912v0.91309q-0.41357 0.19336-0.85938 0.29004-0.44043 0.09668-0.93994 0.09668-1.3589 0-2.1592-0.854t-0.80029-2.3042q0-1.4717 0.80566-2.3149 0.81104-0.84326 2.2183-0.84326 0.45654 0 0.8916 0.09668 0.43506 0.091309 0.84326 0.2793z"/>
   <path d="m72.806 10.721v0.4834h-4.5439q0.06445 1.0205 0.6123 1.5576 0.55322 0.53174 1.5361 0.53174 0.56934 0 1.1011-0.13965 0.53711-0.13965 1.0635-0.41894v0.93457q-0.53174 0.22559-1.0903 0.34375t-1.1333 0.11816q-1.4395 0-2.2827-0.83789-0.83789-0.83789-0.83789-2.2666 0-1.4771 0.79492-2.3418 0.80029-0.87012 2.1538-0.87012 1.2139 0 1.9175 0.78418 0.70898 0.77881 0.70898 2.1216zm-0.98828-0.29004q-0.01074-0.81104-0.45654-1.2944-0.44043-0.4834-1.1709-0.4834-0.82715 0-1.3267 0.46729-0.49414 0.46729-0.56934 1.3159z"/>
  </g>
 </g>
 <g transform="matrix(.46918 0 0 .46918 4.2494 4.6309)" color="#ffffff" fill="#010101" fill-opacity=".3">
  <circle cx="12" cy="12" r="10"/>
  <line x1="14.31" x2="20.05" y1="8" y2="17.94"/>
  <line x1="9.69" x2="21.17" y1="8" y2="8"/>
  <line x1="7.38" x2="13.12" y1="12" y2="2.06"/>
  <line x1="9.69" x2="3.95" y1="16" y2="6.06"/>
  <line x1="14.31" x2="2.83" y1="16" y2="16"/>
  <line x1="16.62" x2="10.88" y1="12" y2="21.94"/>
 </g>
 <g transform="matrix(.43 0 0 .43 4.7587 4.259)" color="#ffffff" fill="none" stroke="currentColor" stroke-linecap="round" stroke-linejoin="round" stroke-width="2">
  <circle cx="12" cy="12" r="10"/>
  <line x1="14.31" x2="20.05" y1="8" y2="17.94"/>
  <line x1="9.69" x2="21.17" y1="8" y2="8"/>
  <line x1="7.38" x2="13.12" y1="12" y2="2.06"/>
  <line x1="9.69" x2="3.95" y1="16" y2="6.06"/>
  <line x1="14.31" x2="2.83" y1="16" y2="16"/>
  <line x1="16.62" x2="10.88" y1="12" y2="21.94"/>
 </g>
 <g transform="translate(-.27705 .82665)" fill="#010101" fill-opacity=".3" stop-color="#000000" stroke-width=".1" style="-inkscape-stroke:none;font-variation-settings:normal" aria-label="roles-ansible/check-ansible-debian-stable-action">
  <g transform="scale(.98547 1.0147)" stop-color="#000000" aria-label="roles-ansible/check-ansible-debian-stretch-action">
   <path d="m101.18 9.057q-0.16589-0.096319-0.36388-0.13913-0.19263-0.04816-0.42808-0.04816-0.83477 0-1.2843 0.54581-0.44414 0.54046-0.44414 1.5572v3.1571h-0.98995v-5.9932h0.98995v0.93109q0.31036-0.54581 0.80801-0.80801 0.49765-0.26755 1.2093-0.26755 0.10167 0 0.22474 0.016053 0.12308 0.010702 0.27291 0.037458z" stop-color="#000000"/>
   <path d="m104.29 8.8269q-0.79196 0-1.2522 0.62072-0.46019 0.61537-0.46019 1.6909t0.45484 1.6963q0.46019 0.61537 1.2575 0.61537 0.78661 0 1.2468-0.62072 0.46019-0.62072 0.46019-1.6909 0-1.0649-0.46019-1.6856-0.46019-0.62608-1.2468-0.62608zm0-0.83477q1.2843 0 2.0174 0.83477 0.73309 0.83477 0.73309 2.3117 0 1.4715-0.73309 2.3117-0.7331 0.83477-2.0174 0.83477-1.2896 0-2.0227-0.83477-0.72775-0.84012-0.72775-2.3117 0-1.4769 0.72775-2.3117 0.73309-0.83477 2.0227-0.83477z" stop-color="#000000"/>
   <path d="m108.68 5.8035h0.9846v8.3263h-0.9846z" stop-color="#000000"/>
   <path d="m116.85 10.887v0.4816h-4.527q0.0642 1.0167 0.61003 1.5518 0.55116 0.52976 1.5304 0.52976 0.56722 0 1.097-0.13913 0.53511-0.13913 1.0595-0.41738v0.93109q-0.52976 0.22475-1.0863 0.34247-0.55651 0.11772-1.1291 0.11772-1.4341 0-2.2742-0.83477-0.83477-0.83477-0.83477-2.2582 0-1.4715 0.79196-2.3331 0.79731-0.86687 2.1458-0.86687 1.2093 0 1.9103 0.78126 0.70634 0.77591 0.70634 2.1137zm-0.98459-0.28896q-0.0107-0.80801-0.45485-1.2896-0.43878-0.4816-1.1665-0.4816-0.82407 0-1.3217 0.46554-0.49229 0.46554-0.56721 1.311z" stop-color="#000000"/>
   <path d="m122.28 8.3132v0.93109q-0.41738-0.21404-0.86687-0.32106-0.44949-0.10702-0.93109-0.10702-0.73309 0-1.1023 0.22475-0.36387 0.22475-0.36387 0.67424 0 0.34247 0.2622 0.54046 0.2622 0.19264 1.0542 0.36922l0.33712 0.07492q1.0488 0.22474 1.4876 0.63678 0.44414 0.40668 0.44414 1.1398 0 0.83477-0.66353 1.3217-0.65819 0.48695-1.814 0.48695-0.4816 0-1.006-0.09632-0.51905-0.09097-1.097-0.27826v-1.0167q0.54581 0.28361 1.0756 0.42809 0.52975 0.13913 1.0488 0.13913 0.69564 0 1.0702-0.23545 0.37458-0.2408 0.37458-0.67424 0-0.40133-0.27291-0.61537-0.26755-0.21404-1.1826-0.41203l-0.34247-0.08027q-0.91503-0.19264-1.3217-0.58862-0.40668-0.40133-0.40668-1.097 0-0.84547 0.59932-1.3057 0.59932-0.46019 1.7016-0.46019 0.54581 0 1.0274 0.080266 0.48159 0.080266 0.88827 0.2408z" stop-color="#000000"/>
   <path d="m123.67 10.689h2.8842v0.87758h-2.8842z" stop-color="#000000"/>
   <path d="m130.85 11.117q-1.1933 0-1.6535 0.2729t-0.46019 0.93109q0 0.5244 0.34247 0.83477 0.34782 0.30501 0.94179 0.30501 0.81871 0 1.311-0.57792 0.49765-0.58327 0.49765-1.5465v-0.21939zm1.9638-0.40668v3.4193h-0.9846v-0.90968q-0.33712 0.54581-0.84012 0.80801-0.503 0.25685-1.2308 0.25685-0.92038 0-1.4662-0.5137-0.54046-0.51905-0.54046-1.3859 0-1.0114 0.67424-1.5251 0.67958-0.5137 2.0227-0.5137h1.3806v-0.09632q0-0.67959-0.44949-1.0488-0.44414-0.37458-1.2522-0.37458-0.5137 0-1.0006 0.12307t-0.93644 0.36922v-0.90968q0.54046-0.20869 1.0488-0.31036 0.50835-0.10702 0.98995-0.10702 1.3003 0 1.9424 0.67424t0.64213 2.0441z" stop-color="#000000"/>
   <path d="m139.82 10.512v3.6173h-0.9846v-3.5852q0-0.85082-0.33177-1.2736-0.33176-0.42273-0.9953-0.42273-0.79731 0-1.2575 0.50835-0.46019 0.50835-0.46019 1.3859v3.3872h-0.98995v-5.9932h0.98995v0.93109q0.35317-0.54046 0.82941-0.80801 0.4816-0.26755 1.1077-0.26755 1.0328 0 1.5625 0.64213 0.52976 0.63678 0.52976 1.8782z" stop-color="#000000"/>
   <path d="m145.61 8.3132v0.93109q-0.41739-0.21404-0.86688-0.32106-0.44949-0.10702-0.93108-0.10702-0.7331 0-1.1023 0.22475-0.36387 0.22475-0.36387 0.67424 0 0.34247 0.2622 0.54046 0.26221 0.19264 1.0542 0.36922l0.33711 0.07492q1.0488 0.22474 1.4876 0.63678 0.44414 0.40668 0.44414 1.1398 0 0.83477-0.66353 1.3217-0.65818 0.48695-1.814 0.48695-0.48159 0-1.006-0.09632-0.51905-0.09097-1.097-0.27826v-1.0167q0.54581 0.28361 1.0756 0.42809 0.52975 0.13913 1.0488 0.13913 0.69564 0 1.0702-0.23545 0.37458-0.2408 0.37458-0.67424 0-0.40133-0.27291-0.61537-0.26755-0.21404-1.1826-0.41203l-0.34247-0.08027q-0.91504-0.19264-1.3217-0.58862-0.40668-0.40133-0.40668-1.097 0-0.84547 0.59932-1.3057 0.59932-0.46019 1.7016-0.46019 0.54581 0 1.0274 0.080266t0.88828 0.2408z" stop-color="#000000"/>
   <path d="m147.5 8.1366h0.9846v5.9932h-0.9846zm0-2.3331h0.9846v1.2468h-0.9846z" stop-color="#000000"/>
   <path d="m154.84 11.139q0-1.0863-0.44949-1.7016-0.44414-0.62072-1.2254-0.62072-0.78125 0-1.2307 0.62072-0.44414 0.61537-0.44414 1.7016t0.44414 1.707q0.44949 0.61537 1.2307 0.61537 0.78126 0 1.2254-0.61537 0.44949-0.62072 0.44949-1.707zm-3.3498-2.0923q0.31036-0.53511 0.78125-0.79196 0.47625-0.2622 1.1344-0.2622 1.0916 0 1.7712 0.86687 0.68493 0.86687 0.68493 2.2796 0 1.4127-0.68493 2.2796-0.67959 0.86687-1.7712 0.86687-0.65818 0-1.1344-0.25685-0.47089-0.2622-0.78125-0.79731v0.89898h-0.98995v-8.3263h0.98995z" stop-color="#000000"/>
   <path d="m157.5 5.8035h0.9846v8.3263h-0.9846z" stop-color="#000000"/>
   <path d="m165.67 10.887v0.4816h-4.527q0.0642 1.0167 0.61002 1.5518 0.55117 0.52976 1.5304 0.52976 0.56722 0 1.097-0.13913 0.53511-0.13913 1.0595-0.41738v0.93109q-0.52975 0.22475-1.0863 0.34247-0.55651 0.11772-1.1291 0.11772-1.4341 0-2.2742-0.83477-0.83476-0.83477-0.83476-2.2582 0-1.4715 0.79196-2.3331 0.79731-0.86687 2.1458-0.86687 1.2093 0 1.9103 0.78126 0.70634 0.77591 0.70634 2.1137zm-0.9846-0.28896q-0.0107-0.80801-0.45484-1.2896-0.43879-0.4816-1.1665-0.4816-0.82407 0-1.3217 0.46554-0.4923 0.46554-0.56721 1.311z" stop-color="#000000"/>
   <path d="m169.04 6.1406h0.90968l-2.7826 9.0059h-0.90968z" stop-color="#000000"/>
   <path d="m175.29 8.3667v0.92038q-0.41738-0.2301-0.84012-0.34247-0.41738-0.11772-0.84547-0.11772-0.95784 0-1.4876 0.61002-0.52975 0.60467-0.52975 1.7016t0.52975 1.707q0.52976 0.60467 1.4876 0.60467 0.42809 0 0.84547-0.11237 0.42274-0.11772 0.84012-0.34782v0.90968q-0.41203 0.19264-0.85617 0.28896-0.43879 0.09632-0.93644 0.09632-1.3538 0-2.1511-0.85082t-0.79731-2.2956q0-1.4662 0.80266-2.3063 0.80801-0.84012 2.21-0.84012 0.45485 0 0.88828 0.096319 0.43344 0.090968 0.84012 0.27826z" stop-color="#000000"/>
   <path d="m181.99 10.512v3.6173h-0.9846v-3.5852q0-0.85082-0.33176-1.2736-0.33177-0.42273-0.9953-0.42273-0.79731 0-1.2575 0.50835-0.46019 0.50835-0.46019 1.3859v3.3872h-0.98995v-8.3263h0.98995v3.2642q0.35317-0.54046 0.82942-0.80801 0.48159-0.26755 1.1077-0.26755 1.0328 0 1.5625 0.64213 0.52976 0.63678 0.52976 1.8782z" stop-color="#000000"/>
   <path d="m189.08 10.887v0.4816h-4.527q0.0642 1.0167 0.61003 1.5518 0.55116 0.52976 1.5304 0.52976 0.56722 0 1.097-0.13913 0.53511-0.13913 1.0595-0.41738v0.93109q-0.52976 0.22475-1.0863 0.34247-0.55651 0.11772-1.1291 0.11772-1.4341 0-2.2742-0.83477-0.83477-0.83477-0.83477-2.2582 0-1.4715 0.79196-2.3331 0.79731-0.86687 2.1458-0.86687 1.2093 0 1.9103 0.78126 0.70634 0.77591 0.70634 2.1137zm-0.9846-0.28896q-0.0107-0.80801-0.45484-1.2896-0.43878-0.4816-1.1665-0.4816-0.82407 0-1.3217 0.46554-0.49229 0.46554-0.56721 1.311z" stop-color="#000000"/>
   <path d="m195 8.3667v0.92038q-0.41739-0.2301-0.84012-0.34247-0.41739-0.11772-0.84547-0.11772-0.95784 0-1.4876 0.61002-0.52976 0.60467-0.52976 1.7016t0.52976 1.707q0.52976 0.60467 1.4876 0.60467 0.42808 0 0.84547-0.11237 0.42273-0.11772 0.84012-0.34782v0.90968q-0.41204 0.19264-0.85617 0.28896-0.43879 0.09632-0.93644 0.09632-1.3538 0-2.1511-0.85082t-0.79731-2.2956q0-1.4662 0.80266-2.3063 0.80801-0.84012 2.21-0.84012 0.45484 0 0.88828 0.096319 0.43344 0.090968 0.84012 0.27826z" stop-color="#000000"/>
   <path d="m196.68 5.8035h0.98995v4.9176l2.9377-2.5846h1.2575l-3.1785 2.804 3.3123 3.1892h-1.2843l-3.0448-2.927v2.927h-0.98995z" stop-color="#000000"/>
   <path d="m202.57 10.689h2.8842v0.87758h-2.8842z" stop-color="#000000"/>
   <path d="m209.74 11.117q-1.1933 0-1.6535 0.2729t-0.46019 0.93109q0 0.5244 0.34247 0.83477 0.34782 0.30501 0.94179 0.30501 0.81871 0 1.311-0.57792 0.49765-0.58327 0.49765-1.5465v-0.21939zm1.9638-0.40668v3.4193h-0.9846v-0.90968q-0.33712 0.54581-0.84012 0.80801-0.503 0.25685-1.2308 0.25685-0.92038 0-1.4662-0.5137-0.54046-0.51905-0.54046-1.3859 0-1.0114 0.67424-1.5251 0.67958-0.5137 2.0227-0.5137h1.3806v-0.09632q0-0.67959-0.44949-1.0488-0.44414-0.37458-1.2522-0.37458-0.51371 0-1.0006 0.12307-0.48695 0.12307-0.93644 0.36922v-0.90968q0.54046-0.20869 1.0488-0.31036 0.50835-0.10702 0.98995-0.10702 1.3003 0 1.9424 0.67424t0.64213 2.0441z" stop-color="#000000"/>
   <path d="m218.71 10.512v3.6173h-0.98459v-3.5852q0-0.85082-0.33177-1.2736-0.33177-0.42273-0.9953-0.42273-0.79731 0-1.2575 0.50835-0.46019 0.50835-0.46019 1.3859v3.3872h-0.98995v-5.9932h0.98995v0.93109q0.35317-0.54046 0.82941-0.80801 0.4816-0.26755 1.1077-0.26755 1.0328 0 1.5625 0.64213 0.52975 0.63678 0.52975 1.8782z" stop-color="#000000"/>
   <path d="m224.5 8.3132v0.93109q-0.41738-0.21404-0.86687-0.32106-0.44949-0.10702-0.93109-0.10702-0.73309 0-1.1023 0.22475-0.36387 0.22475-0.36387 0.67424 0 0.34247 0.2622 0.54046 0.26221 0.19264 1.0542 0.36922l0.33712 0.07492q1.0488 0.22474 1.4876 0.63678 0.44414 0.40668 0.44414 1.1398 0 0.83477-0.66353 1.3217-0.65819 0.48695-1.814 0.48695-0.48159 0-1.006-0.09632-0.51905-0.09097-1.097-0.27826v-1.0167q0.54581 0.28361 1.0756 0.42809 0.52975 0.13913 1.0488 0.13913 0.69564 0 1.0702-0.23545 0.37458-0.2408 0.37458-0.67424 0-0.40133-0.27291-0.61537-0.26755-0.21404-1.1826-0.41203l-0.34246-0.08027q-0.91504-0.19264-1.3217-0.58862-0.40668-0.40133-0.40668-1.097 0-0.84547 0.59932-1.3057 0.59932-0.46019 1.7016-0.46019 0.54581 0 1.0274 0.080266 0.48159 0.080266 0.88827 0.2408z" stop-color="#000000"/>
   <path d="m226.39 8.1366h0.9846v5.9932h-0.9846zm0-2.3331h0.9846v1.2468h-0.9846z" stop-color="#000000"/>
   <path d="m233.74 11.139q0-1.0863-0.44949-1.7016-0.44414-0.62072-1.2254-0.62072-0.78125 0-1.2307 0.62072-0.44414 0.61537-0.44414 1.7016t0.44414 1.707q0.44949 0.61537 1.2307 0.61537 0.78126 0 1.2254-0.61537 0.44949-0.62072 0.44949-1.707zm-3.3498-2.0923q0.31036-0.53511 0.78125-0.79196 0.47625-0.2622 1.1344-0.2622 1.0916 0 1.7712 0.86687 0.68494 0.86687 0.68494 2.2796 0 1.4127-0.68494 2.2796-0.67959 0.86687-1.7712 0.86687-0.65818 0-1.1344-0.25685-0.47089-0.2622-0.78125-0.79731v0.89898h-0.98995v-8.3263h0.98995z" stop-color="#000000"/>
   <path d="m236.39 5.8035h0.9846v8.3263h-0.9846z" stop-color="#000000"/>
   <path d="m244.56 10.887v0.4816h-4.527q0.0642 1.0167 0.61002 1.5518 0.55116 0.52976 1.5304 0.52976 0.56721 0 1.097-0.13913 0.5351-0.13913 1.0595-0.41738v0.93109q-0.52976 0.22475-1.0863 0.34247-0.55651 0.11772-1.1291 0.11772-1.4341 0-2.2742-0.83477-0.83477-0.83477-0.83477-2.2582 0-1.4715 0.79196-2.3331 0.79731-0.86687 2.1458-0.86687 1.2093 0 1.9103 0.78126 0.70635 0.77591 0.70635 2.1137zm-0.9846-0.28896q-0.0107-0.80801-0.45484-1.2896-0.43879-0.4816-1.1665-0.4816-0.82406 0-1.3217 0.46554-0.4923 0.46554-0.56722 1.311z" stop-color="#000000"/>
   <path d="m245.68 10.689h2.8842v0.87758h-2.8842z" stop-color="#000000"/>
   <path d="m254.07 9.0463v-3.2428h0.9846v8.3263h-0.9846v-0.89898q-0.31036 0.53511-0.78661 0.79731-0.47089 0.25685-1.1344 0.25685-1.0863 0-1.7712-0.86687-0.67959-0.86687-0.67959-2.2796 0-1.4127 0.67959-2.2796 0.68494-0.86687 1.7712-0.86687 0.66353 0 1.1344 0.2622 0.47625 0.25685 0.78661 0.79196zm-3.3551 2.0923q0 1.0863 0.44414 1.707 0.44949 0.61537 1.2307 0.61537 0.78126 0 1.2308-0.61537 0.44949-0.62072 0.44949-1.707t-0.44949-1.7016q-0.44949-0.62072-1.2308-0.62072-0.78125 0-1.2307 0.62072-0.44414 0.61537-0.44414 1.7016z" stop-color="#000000"/>
   <path d="m262.21 10.887v0.4816h-4.527q0.0642 1.0167 0.61002 1.5518 0.55116 0.52976 1.5304 0.52976 0.56722 0 1.097-0.13913 0.53511-0.13913 1.0595-0.41738v0.93109q-0.52976 0.22475-1.0863 0.34247-0.55651 0.11772-1.1291 0.11772-1.4341 0-2.2742-0.83477-0.83477-0.83477-0.83477-2.2582 0-1.4715 0.79196-2.3331 0.79731-0.86687 2.1458-0.86687 1.2093 0 1.9103 0.78126 0.70634 0.77591 0.70634 2.1137zm-0.98459-0.28896q-0.0107-0.80801-0.45485-1.2896-0.43878-0.4816-1.1665-0.4816-0.82406 0-1.3217 0.46554-0.4923 0.46554-0.56722 1.311z" stop-color="#000000"/>
   <path d="m268.13 11.139q0-1.0863-0.44949-1.7016-0.44414-0.62072-1.2254-0.62072-0.78126 0-1.2308 0.62072-0.44414 0.61537-0.44414 1.7016t0.44414 1.707q0.44949 0.61537 1.2308 0.61537 0.78125 0 1.2254-0.61537 0.44949-0.62072 0.44949-1.707zm-3.3498-2.0923q0.31036-0.53511 0.78126-0.79196 0.47624-0.2622 1.1344-0.2622 1.0916 0 1.7712 0.86687 0.68494 0.86687 0.68494 2.2796 0 1.4127-0.68494 2.2796-0.67959 0.86687-1.7712 0.86687-0.65819 0-1.1344-0.25685-0.4709-0.2622-0.78126-0.79731v0.89898h-0.98995v-8.3263h0.98995z" stop-color="#000000"/>
   <path d="m270.79 8.1366h0.9846v5.9932h-0.9846zm0-2.3331h0.9846v1.2468h-0.9846z" stop-color="#000000"/>
   <path d="m276.55 11.117q-1.1933 0-1.6535 0.2729-0.46019 0.2729-0.46019 0.93109 0 0.5244 0.34247 0.83477 0.34782 0.30501 0.94179 0.30501 0.81871 0 1.311-0.57792 0.49765-0.58327 0.49765-1.5465v-0.21939zm1.9638-0.40668v3.4193h-0.9846v-0.90968q-0.33711 0.54581-0.84012 0.80801-0.503 0.25685-1.2307 0.25685-0.92039 0-1.4662-0.5137-0.54046-0.51905-0.54046-1.3859 0-1.0114 0.67424-1.5251 0.67959-0.5137 2.0227-0.5137h1.3806v-0.09632q0-0.67959-0.44949-1.0488-0.44414-0.37458-1.2522-0.37458-0.5137 0-1.0006 0.12307t-0.93644 0.36922v-0.90968q0.54046-0.20869 1.0488-0.31036 0.50836-0.10702 0.98995-0.10702 1.3003 0 1.9424 0.67424t0.64213 2.0441z" stop-color="#000000"/>
   <path d="m285.53 10.512v3.6173h-0.9846v-3.5852q0-0.85082-0.33176-1.2736-0.33177-0.42273-0.9953-0.42273-0.79731 0-1.2575 0.50835-0.46019 0.50835-0.46019 1.3859v3.3872h-0.98995v-5.9932h0.98995v0.93109q0.35317-0.54046 0.82942-0.80801 0.4816-0.26755 1.1077-0.26755 1.0328 0 1.5625 0.64213 0.52976 0.63678 0.52976 1.8782z" stop-color="#000000"/>
   <path d="m286.99 10.689h2.8842v0.87758h-2.8842z" stop-color="#000000"/>
   <path d="m295.27 8.3132v0.93109q-0.41738-0.21404-0.86687-0.32106-0.44949-0.10702-0.93109-0.10702-0.7331 0-1.1023 0.22475-0.36388 0.22475-0.36388 0.67424 0 0.34247 0.26221 0.54046 0.2622 0.19264 1.0542 0.36922l0.33712 0.07492q1.0488 0.22474 1.4876 0.63678 0.44414 0.40668 0.44414 1.1398 0 0.83477-0.66353 1.3217-0.65818 0.48695-1.814 0.48695-0.4816 0-1.006-0.09632-0.51905-0.09097-1.097-0.27826v-1.0167q0.54581 0.28361 1.0756 0.42809 0.52976 0.13913 1.0488 0.13913 0.69564 0 1.0702-0.23545 0.37457-0.2408 0.37457-0.67424 0-0.40133-0.2729-0.61537-0.26756-0.21404-1.1826-0.41203l-0.34247-0.08027q-0.91503-0.19264-1.3217-0.58862-0.40668-0.40133-0.40668-1.097 0-0.84547 0.59932-1.3057 0.59932-0.46019 1.7016-0.46019 0.54581 0 1.0274 0.080266t0.88828 0.2408z" stop-color="#000000"/>
   <path d="m298.13 6.435v1.7016h2.028v0.7652h-2.028v3.2535q0 0.7331 0.19799 0.94179 0.20334 0.20869 0.81871 0.20869h1.0114v0.82407h-1.0114q-1.1398 0-1.5732-0.42274-0.43344-0.42809-0.43344-1.5518v-3.2535h-0.7224v-0.7652h0.7224v-1.7016z" stop-color="#000000"/>
   <path d="m304.93 9.057q-0.16589-0.096319-0.36388-0.13913-0.19264-0.04816-0.42808-0.04816-0.83477 0-1.2843 0.54581-0.44414 0.54046-0.44414 1.5572v3.1571h-0.98995v-5.9932h0.98995v0.93109q0.31036-0.54581 0.80801-0.80801 0.49765-0.26755 1.2093-0.26755 0.10167 0 0.22475 0.016053 0.12307 0.010702 0.2729 0.037458z" stop-color="#000000"/>
   <path d="m310.84 10.887v0.4816h-4.527q0.0642 1.0167 0.61002 1.5518 0.55116 0.52976 1.5304 0.52976 0.56721 0 1.097-0.13913 0.53511-0.13913 1.0595-0.41738v0.93109q-0.52975 0.22475-1.0863 0.34247-0.55651 0.11772-1.1291 0.11772-1.4341 0-2.2742-0.83477-0.83477-0.83477-0.83477-2.2582 0-1.4715 0.79196-2.3331 0.79731-0.86687 2.1458-0.86687 1.2094 0 1.9103 0.78126 0.70634 0.77591 0.70634 2.1137zm-0.9846-0.28896q-0.0107-0.80801-0.45484-1.2896-0.43879-0.4816-1.1665-0.4816-0.82406 0-1.3217 0.46554-0.4923 0.46554-0.56721 1.311z" stop-color="#000000"/>
   <path d="m313.43 6.435v1.7016h2.0281v0.7652h-2.0281v3.2535q0 0.7331 0.19799 0.94179 0.20334 0.20869 0.81871 0.20869h1.0114v0.82407h-1.0114q-1.1398 0-1.5732-0.42274-0.43344-0.42809-0.43344-1.5518v-3.2535h-0.72239v-0.7652h0.72239v-1.7016z" stop-color="#000000"/>
   <path d="m321.07 8.3667v0.92038q-0.41738-0.2301-0.84012-0.34247-0.41738-0.11772-0.84547-0.11772-0.95784 0-1.4876 0.61002-0.52975 0.60467-0.52975 1.7016t0.52975 1.707q0.52976 0.60467 1.4876 0.60467 0.42809 0 0.84547-0.11237 0.42274-0.11772 0.84012-0.34782v0.90968q-0.41203 0.19264-0.85617 0.28896-0.43879 0.09632-0.93644 0.09632-1.3538 0-2.1511-0.85082t-0.79731-2.2956q0-1.4662 0.80266-2.3063 0.80801-0.84012 2.21-0.84012 0.45485 0 0.88828 0.096319 0.43344 0.090968 0.84012 0.27826z" stop-color="#000000"/>
   <path d="m327.76 10.512v3.6173h-0.98459v-3.5852q0-0.85082-0.33177-1.2736-0.33177-0.42273-0.9953-0.42273-0.79731 0-1.2575 0.50835-0.46019 0.50835-0.46019 1.3859v3.3872h-0.98995v-8.3263h0.98995v3.2642q0.35317-0.54046 0.82941-0.80801 0.4816-0.26755 1.1077-0.26755 1.0328 0 1.5625 0.64213 0.52975 0.63678 0.52975 1.8782z" stop-color="#000000"/>
   <path d="m329.23 10.689h2.8842v0.87758h-2.8842z" stop-color="#000000"/>
   <path d="m336.41 11.117q-1.1933 0-1.6535 0.2729-0.4602 0.2729-0.4602 0.93109 0 0.5244 0.34247 0.83477 0.34782 0.30501 0.94179 0.30501 0.81872 0 1.311-0.57792 0.49765-0.58327 0.49765-1.5465v-0.21939zm1.9638-0.40668v3.4193h-0.9846v-0.90968q-0.33711 0.54581-0.84011 0.80801-0.50301 0.25685-1.2308 0.25685-0.92039 0-1.4662-0.5137-0.54045-0.51905-0.54045-1.3859 0-1.0114 0.67423-1.5251 0.67959-0.5137 2.0227-0.5137h1.3806v-0.09632q0-0.67959-0.44949-1.0488-0.44414-0.37458-1.2522-0.37458-0.5137 0-1.0006 0.12307t-0.93644 0.36922v-0.90968q0.54046-0.20869 1.0488-0.31036 0.50836-0.10702 0.98995-0.10702 1.3003 0 1.9424 0.67424t0.64213 2.0441z" stop-color="#000000"/>
   <path d="m344.71 8.3667v0.92038q-0.41739-0.2301-0.84012-0.34247-0.41738-0.11772-0.84547-0.11772-0.95784 0-1.4876 0.61002-0.52976 0.60467-0.52976 1.7016t0.52976 1.707q0.52976 0.60467 1.4876 0.60467 0.42809 0 0.84547-0.11237 0.42273-0.11772 0.84012-0.34782v0.90968q-0.41203 0.19264-0.85617 0.28896-0.43879 0.09632-0.93644 0.09632-1.3538 0-2.1511-0.85082t-0.79731-2.2956q0-1.4662 0.80266-2.3063 0.80801-0.84012 2.21-0.84012 0.45484 0 0.88828 0.096319 0.43344 0.090968 0.84012 0.27826z" stop-color="#000000"/>
   <path d="m347.4 6.435v1.7016h2.0281v0.7652h-2.0281v3.2535q0 0.7331 0.19799 0.94179 0.20334 0.20869 0.81872 0.20869h1.0114v0.82407h-1.0114q-1.1398 0-1.5732-0.42274-0.43344-0.42809-0.43344-1.5518v-3.2535h-0.72239v-0.7652h0.72239v-1.7016z" stop-color="#000000"/>
   <path d="m350.72 8.1366h0.9846v5.9932h-0.9846zm0-2.3331h0.9846v1.2468h-0.9846z" stop-color="#000000"/>
   <path d="m356.09 8.8269q-0.79196 0-1.2522 0.62072-0.4602 0.61537-0.4602 1.6909t0.45484 1.6963q0.4602 0.61537 1.2575 0.61537 0.78661 0 1.2468-0.62072 0.46019-0.62072 0.46019-1.6909 0-1.0649-0.46019-1.6856-0.46019-0.62608-1.2468-0.62608zm0-0.83477q1.2843 0 2.0174 0.83477 0.7331 0.83477 0.7331 2.3117 0 1.4715-0.7331 2.3117-0.73309 0.83477-2.0174 0.83477-1.2896 0-2.0227-0.83477-0.72774-0.84012-0.72774-2.3117 0-1.4769 0.72774-2.3117 0.7331-0.83477 2.0227-0.83477z" stop-color="#000000"/>
   <path d="m365.45 10.512v3.6173h-0.9846v-3.5852q0-0.85082-0.33177-1.2736-0.33176-0.42273-0.9953-0.42273-0.79731 0-1.2575 0.50835-0.46019 0.50835-0.46019 1.3859v3.3872h-0.98995v-5.9932h0.98995v0.93109q0.35317-0.54046 0.82941-0.80801 0.4816-0.26755 1.1077-0.26755 1.0328 0 1.5625 0.64213 0.52976 0.63678 0.52976 1.8782z" stop-color="#000000"/>
  </g>
 </g>
 <g transform="translate(-.27705 -.076837)" fill="#fff" aria-label="roles-ansible/check-ansible-debian-stable-action">
  <g transform="scale(.98547 1.0147)" stroke-width=".27397" aria-label="roles-ansible/check-ansible-debian-stretch-action">
   <path d="m101.18 9.057q-0.16589-0.096319-0.36388-0.13913-0.19263-0.04816-0.42808-0.04816-0.83477 0-1.2843 0.54581-0.44414 0.54046-0.44414 1.5572v3.1571h-0.98995v-5.9932h0.98995v0.93109q0.31036-0.54581 0.80801-0.80801 0.49765-0.26755 1.2093-0.26755 0.10167 0 0.22474 0.016053 0.12308 0.010702 0.27291 0.037458z"/>
   <path d="m104.29 8.8269q-0.79196 0-1.2522 0.62072-0.46019 0.61537-0.46019 1.6909t0.45484 1.6963q0.46019 0.61537 1.2575 0.61537 0.78661 0 1.2468-0.62072 0.46019-0.62072 0.46019-1.6909 0-1.0649-0.46019-1.6856-0.46019-0.62608-1.2468-0.62608zm0-0.83477q1.2843 0 2.0174 0.83477 0.73309 0.83477 0.73309 2.3117 0 1.4715-0.73309 2.3117-0.7331 0.83477-2.0174 0.83477-1.2896 0-2.0227-0.83477-0.72775-0.84012-0.72775-2.3117 0-1.4769 0.72775-2.3117 0.73309-0.83477 2.0227-0.83477z"/>
   <path d="m108.68 5.8035h0.9846v8.3263h-0.9846z"/>
   <path d="m116.85 10.887v0.4816h-4.527q0.0642 1.0167 0.61003 1.5518 0.55116 0.52976 1.5304 0.52976 0.56722 0 1.097-0.13913 0.53511-0.13913 1.0595-0.41738v0.93109q-0.52976 0.22475-1.0863 0.34247-0.55651 0.11772-1.1291 0.11772-1.4341 0-2.2742-0.83477-0.83477-0.83477-0.83477-2.2582 0-1.4715 0.79196-2.3331 0.79731-0.86687 2.1458-0.86687 1.2093 0 1.9103 0.78126 0.70634 0.77591 0.70634 2.1137zm-0.98459-0.28896q-0.0107-0.80801-0.45485-1.2896-0.43878-0.4816-1.1665-0.4816-0.82407 0-1.3217 0.46554-0.49229 0.46554-0.56721 1.311z"/>
   <path d="m122.28 8.3132v0.93109q-0.41738-0.21404-0.86687-0.32106-0.44949-0.10702-0.93109-0.10702-0.73309 0-1.1023 0.22475-0.36387 0.22475-0.36387 0.67424 0 0.34247 0.2622 0.54046 0.2622 0.19264 1.0542 0.36922l0.33712 0.07492q1.0488 0.22474 1.4876 0.63678 0.44414 0.40668 0.44414 1.1398 0 0.83477-0.66353 1.3217-0.65819 0.48695-1.814 0.48695-0.4816 0-1.006-0.09632-0.51905-0.09097-1.097-0.27826v-1.0167q0.54581 0.28361 1.0756 0.42809 0.52975 0.13913 1.0488 0.13913 0.69564 0 1.0702-0.23545 0.37458-0.2408 0.37458-0.67424 0-0.40133-0.27291-0.61537-0.26755-0.21404-1.1826-0.41203l-0.34247-0.08027q-0.91503-0.19264-1.3217-0.58862-0.40668-0.40133-0.40668-1.097 0-0.84547 0.59932-1.3057 0.59932-0.46019 1.7016-0.46019 0.54581 0 1.0274 0.080266 0.48159 0.080266 0.88827 0.2408z"/>
   <path d="m123.67 10.689h2.8842v0.87758h-2.8842z"/>
   <path d="m130.85 11.117q-1.1933 0-1.6535 0.2729t-0.46019 0.93109q0 0.5244 0.34247 0.83477 0.34782 0.30501 0.94179 0.30501 0.81871 0 1.311-0.57792 0.49765-0.58327 0.49765-1.5465v-0.21939zm1.9638-0.40668v3.4193h-0.9846v-0.90968q-0.33712 0.54581-0.84012 0.80801-0.503 0.25685-1.2308 0.25685-0.92038 0-1.4662-0.5137-0.54046-0.51905-0.54046-1.3859 0-1.0114 0.67424-1.5251 0.67958-0.5137 2.0227-0.5137h1.3806v-0.09632q0-0.67959-0.44949-1.0488-0.44414-0.37458-1.2522-0.37458-0.5137 0-1.0006 0.12307t-0.93644 0.36922v-0.90968q0.54046-0.20869 1.0488-0.31036 0.50835-0.10702 0.98995-0.10702 1.3003 0 1.9424 0.67424t0.64213 2.0441z"/>
   <path d="m139.82 10.512v3.6173h-0.9846v-3.5852q0-0.85082-0.33177-1.2736-0.33176-0.42273-0.9953-0.42273-0.79731 0-1.2575 0.50835-0.46019 0.50835-0.46019 1.3859v3.3872h-0.98995v-5.9932h0.98995v0.93109q0.35317-0.54046 0.82941-0.80801 0.4816-0.26755 1.1077-0.26755 1.0328 0 1.5625 0.64213 0.52976 0.63678 0.52976 1.8782z"/>
   <path d="m145.61 8.3132v0.93109q-0.41739-0.21404-0.86688-0.32106-0.44949-0.10702-0.93108-0.10702-0.7331 0-1.1023 0.22475-0.36387 0.22475-0.36387 0.67424 0 0.34247 0.2622 0.54046 0.26221 0.19264 1.0542 0.36922l0.33711 0.07492q1.0488 0.22474 1.4876 0.63678 0.44414 0.40668 0.44414 1.1398 0 0.83477-0.66353 1.3217-0.65818 0.48695-1.814 0.48695-0.48159 0-1.006-0.09632-0.51905-0.09097-1.097-0.27826v-1.0167q0.54581 0.28361 1.0756 0.42809 0.52975 0.13913 1.0488 0.13913 0.69564 0 1.0702-0.23545 0.37458-0.2408 0.37458-0.67424 0-0.40133-0.27291-0.61537-0.26755-0.21404-1.1826-0.41203l-0.34247-0.08027q-0.91504-0.19264-1.3217-0.58862-0.40668-0.40133-0.40668-1.097 0-0.84547 0.59932-1.3057 0.59932-0.46019 1.7016-0.46019 0.54581 0 1.0274 0.080266t0.88828 0.2408z"/>
   <path d="m147.5 8.1366h0.9846v5.9932h-0.9846zm0-2.3331h0.9846v1.2468h-0.9846z"/>
   <path d="m154.84 11.139q0-1.0863-0.44949-1.7016-0.44414-0.62072-1.2254-0.62072-0.78125 0-1.2307 0.62072-0.44414 0.61537-0.44414 1.7016t0.44414 1.707q0.44949 0.61537 1.2307 0.61537 0.78126 0 1.2254-0.61537 0.44949-0.62072 0.44949-1.707zm-3.3498-2.0923q0.31036-0.53511 0.78125-0.79196 0.47625-0.2622 1.1344-0.2622 1.0916 0 1.7712 0.86687 0.68493 0.86687 0.68493 2.2796 0 1.4127-0.68493 2.2796-0.67959 0.86687-1.7712 0.86687-0.65818 0-1.1344-0.25685-0.47089-0.2622-0.78125-0.79731v0.89898h-0.98995v-8.3263h0.98995z"/>
   <path d="m157.5 5.8035h0.9846v8.3263h-0.9846z"/>
   <path d="m165.67 10.887v0.4816h-4.527q0.0642 1.0167 0.61002 1.5518 0.55117 0.52976 1.5304 0.52976 0.56722 0 1.097-0.13913 0.53511-0.13913 1.0595-0.41738v0.93109q-0.52975 0.22475-1.0863 0.34247-0.55651 0.11772-1.1291 0.11772-1.4341 0-2.2742-0.83477-0.83476-0.83477-0.83476-2.2582 0-1.4715 0.79196-2.3331 0.79731-0.86687 2.1458-0.86687 1.2093 0 1.9103 0.78126 0.70634 0.77591 0.70634 2.1137zm-0.9846-0.28896q-0.0107-0.80801-0.45484-1.2896-0.43879-0.4816-1.1665-0.4816-0.82407 0-1.3217 0.46554-0.4923 0.46554-0.56721 1.311z"/>
   <path d="m169.04 6.1406h0.90968l-2.7826 9.0059h-0.90968z"/>
   <path d="m175.29 8.3667v0.92038q-0.41738-0.2301-0.84012-0.34247-0.41738-0.11772-0.84547-0.11772-0.95784 0-1.4876 0.61002-0.52975 0.60467-0.52975 1.7016t0.52975 1.707q0.52976 0.60467 1.4876 0.60467 0.42809 0 0.84547-0.11237 0.42274-0.11772 0.84012-0.34782v0.90968q-0.41203 0.19264-0.85617 0.28896-0.43879 0.09632-0.93644 0.09632-1.3538 0-2.1511-0.85082t-0.79731-2.2956q0-1.4662 0.80266-2.3063 0.80801-0.84012 2.21-0.84012 0.45485 0 0.88828 0.096319 0.43344 0.090968 0.84012 0.27826z"/>
   <path d="m181.99 10.512v3.6173h-0.9846v-3.5852q0-0.85082-0.33176-1.2736-0.33177-0.42273-0.9953-0.42273-0.79731 0-1.2575 0.50835-0.46019 0.50835-0.46019 1.3859v3.3872h-0.98995v-8.3263h0.98995v3.2642q0.35317-0.54046 0.82942-0.80801 0.48159-0.26755 1.1077-0.26755 1.0328 0 1.5625 0.64213 0.52976 0.63678 0.52976 1.8782z"/>
   <path d="m189.08 10.887v0.4816h-4.527q0.0642 1.0167 0.61003 1.5518 0.55116 0.52976 1.5304 0.52976 0.56722 0 1.097-0.13913 0.53511-0.13913 1.0595-0.41738v0.93109q-0.52976 0.22475-1.0863 0.34247-0.55651 0.11772-1.1291 0.11772-1.4341 0-2.2742-0.83477-0.83477-0.83477-0.83477-2.2582 0-1.4715 0.79196-2.3331 0.79731-0.86687 2.1458-0.86687 1.2093 0 1.9103 0.78126 0.70634 0.77591 0.70634 2.1137zm-0.9846-0.28896q-0.0107-0.80801-0.45484-1.2896-0.43878-0.4816-1.1665-0.4816-0.82407 0-1.3217 0.46554-0.49229 0.46554-0.56721 1.311z"/>
   <path d="m195 8.3667v0.92038q-0.41739-0.2301-0.84012-0.34247-0.41739-0.11772-0.84547-0.11772-0.95784 0-1.4876 0.61002-0.52976 0.60467-0.52976 1.7016t0.52976 1.707q0.52976 0.60467 1.4876 0.60467 0.42808 0 0.84547-0.11237 0.42273-0.11772 0.84012-0.34782v0.90968q-0.41204 0.19264-0.85617 0.28896-0.43879 0.09632-0.93644 0.09632-1.3538 0-2.1511-0.85082t-0.79731-2.2956q0-1.4662 0.80266-2.3063 0.80801-0.84012 2.21-0.84012 0.45484 0 0.88828 0.096319 0.43344 0.090968 0.84012 0.27826z"/>
   <path d="m196.68 5.8035h0.98995v4.9176l2.9377-2.5846h1.2575l-3.1785 2.804 3.3123 3.1892h-1.2843l-3.0448-2.927v2.927h-0.98995z"/>
   <path d="m202.57 10.689h2.8842v0.87758h-2.8842z"/>
   <path d="m209.74 11.117q-1.1933 0-1.6535 0.2729t-0.46019 0.93109q0 0.5244 0.34247 0.83477 0.34782 0.30501 0.94179 0.30501 0.81871 0 1.311-0.57792 0.49765-0.58327 0.49765-1.5465v-0.21939zm1.9638-0.40668v3.4193h-0.9846v-0.90968q-0.33712 0.54581-0.84012 0.80801-0.503 0.25685-1.2308 0.25685-0.92038 0-1.4662-0.5137-0.54046-0.51905-0.54046-1.3859 0-1.0114 0.67424-1.5251 0.67958-0.5137 2.0227-0.5137h1.3806v-0.09632q0-0.67959-0.44949-1.0488-0.44414-0.37458-1.2522-0.37458-0.51371 0-1.0006 0.12307-0.48695 0.12307-0.93644 0.36922v-0.90968q0.54046-0.20869 1.0488-0.31036 0.50835-0.10702 0.98995-0.10702 1.3003 0 1.9424 0.67424t0.64213 2.0441z"/>
   <path d="m218.71 10.512v3.6173h-0.98459v-3.5852q0-0.85082-0.33177-1.2736-0.33177-0.42273-0.9953-0.42273-0.79731 0-1.2575 0.50835-0.46019 0.50835-0.46019 1.3859v3.3872h-0.98995v-5.9932h0.98995v0.93109q0.35317-0.54046 0.82941-0.80801 0.4816-0.26755 1.1077-0.26755 1.0328 0 1.5625 0.64213 0.52975 0.63678 0.52975 1.8782z"/>
   <path d="m224.5 8.3132v0.93109q-0.41738-0.21404-0.86687-0.32106-0.44949-0.10702-0.93109-0.10702-0.73309 0-1.1023 0.22475-0.36387 0.22475-0.36387 0.67424 0 0.34247 0.2622 0.54046 0.26221 0.19264 1.0542 0.36922l0.33712 0.07492q1.0488 0.22474 1.4876 0.63678 0.44414 0.40668 0.44414 1.1398 0 0.83477-0.66353 1.3217-0.65819 0.48695-1.814 0.48695-0.48159 0-1.006-0.09632-0.51905-0.09097-1.097-0.27826v-1.0167q0.54581 0.28361 1.0756 0.42809 0.52975 0.13913 1.0488 0.13913 0.69564 0 1.0702-0.23545 0.37458-0.2408 0.37458-0.67424 0-0.40133-0.27291-0.61537-0.26755-0.21404-1.1826-0.41203l-0.34246-0.08027q-0.91504-0.19264-1.3217-0.58862-0.40668-0.40133-0.40668-1.097 0-0.84547 0.59932-1.3057 0.59932-0.46019 1.7016-0.46019 0.54581 0 1.0274 0.080266 0.48159 0.080266 0.88827 0.2408z"/>
   <path d="m226.39 8.1366h0.9846v5.9932h-0.9846zm0-2.3331h0.9846v1.2468h-0.9846z"/>
   <path d="m233.74 11.139q0-1.0863-0.44949-1.7016-0.44414-0.62072-1.2254-0.62072-0.78125 0-1.2307 0.62072-0.44414 0.61537-0.44414 1.7016t0.44414 1.707q0.44949 0.61537 1.2307 0.61537 0.78126 0 1.2254-0.61537 0.44949-0.62072 0.44949-1.707zm-3.3498-2.0923q0.31036-0.53511 0.78125-0.79196 0.47625-0.2622 1.1344-0.2622 1.0916 0 1.7712 0.86687 0.68494 0.86687 0.68494 2.2796 0 1.4127-0.68494 2.2796-0.67959 0.86687-1.7712 0.86687-0.65818 0-1.1344-0.25685-0.47089-0.2622-0.78125-0.79731v0.89898h-0.98995v-8.3263h0.98995z"/>
   <path d="m236.39 5.8035h0.9846v8.3263h-0.9846z"/>
   <path d="m244.56 10.887v0.4816h-4.527q0.0642 1.0167 0.61002 1.5518 0.55116 0.52976 1.5304 0.52976 0.56721 0 1.097-0.13913 0.5351-0.13913 1.0595-0.41738v0.93109q-0.52976 0.22475-1.0863 0.34247-0.55651 0.11772-1.1291 0.11772-1.4341 0-2.2742-0.83477-0.83477-0.83477-0.83477-2.2582 0-1.4715 0.79196-2.3331 0.79731-0.86687 2.1458-0.86687 1.2093 0 1.9103 0.78126 0.70635 0.77591 0.70635 2.1137zm-0.9846-0.28896q-0.0107-0.80801-0.45484-1.2896-0.43879-0.4816-1.1665-0.4816-0.82406 0-1.3217 0.46554-0.4923 0.46554-0.56722 1.311z"/>
   <path d="m245.68 10.689h2.8842v0.87758h-2.8842z"/>
   <path d="m254.07 9.0463v-3.2428h0.9846v8.3263h-0.9846v-0.89898q-0.31036 0.53511-0.78661 0.79731-0.47089 0.25685-1.1344 0.25685-1.0863 0-1.7712-0.86687-0.67959-0.86687-0.67959-2.2796 0-1.4127 0.67959-2.2796 0.68494-0.86687 1.7712-0.86687 0.66353 0 1.1344 0.2622 0.47625 0.25685 0.78661 0.79196zm-3.3551 2.0923q0 1.0863 0.44414 1.707 0.44949 0.61537 1.2307 0.61537 0.78126 0 1.2308-0.61537 0.44949-0.62072 0.44949-1.707t-0.44949-1.7016q-0.44949-0.62072-1.2308-0.62072-0.78125 0-1.2307 0.62072-0.44414 0.61537-0.44414 1.7016z"/>
   <path d="m262.21 10.887v0.4816h-4.527q0.0642 1.0167 0.61002 1.5518 0.55116 0.52976 1.5304 0.52976 0.56722 0 1.097-0.13913 0.53511-0.13913 1.0595-0.41738v0.93109q-0.52976 0.22475-1.0863 0.34247-0.55651 0.11772-1.1291 0.11772-1.4341 0-2.2742-0.83477-0.83477-0.83477-0.83477-2.2582 0-1.4715 0.79196-2.3331 0.79731-0.86687 2.1458-0.86687 1.2093 0 1.9103 0.78126 0.70634 0.77591 0.70634 2.1137zm-0.98459-0.28896q-0.0107-0.80801-0.45485-1.2896-0.43878-0.4816-1.1665-0.4816-0.82406 0-1.3217 0.46554-0.4923 0.46554-0.56722 1.311z"/>
   <path d="m268.13 11.139q0-1.0863-0.44949-1.7016-0.44414-0.62072-1.2254-0.62072-0.78126 0-1.2308 0.62072-0.44414 0.61537-0.44414 1.7016t0.44414 1.707q0.44949 0.61537 1.2308 0.61537 0.78125 0 1.2254-0.61537 0.44949-0.62072 0.44949-1.707zm-3.3498-2.0923q0.31036-0.53511 0.78126-0.79196 0.47624-0.2622 1.1344-0.2622 1.0916 0 1.7712 0.86687 0.68494 0.86687 0.68494 2.2796 0 1.4127-0.68494 2.2796-0.67959 0.86687-1.7712 0.86687-0.65819 0-1.1344-0.25685-0.4709-0.2622-0.78126-0.79731v0.89898h-0.98995v-8.3263h0.98995z"/>
   <path d="m270.79 8.1366h0.9846v5.9932h-0.9846zm0-2.3331h0.9846v1.2468h-0.9846z"/>
   <path d="m276.55 11.117q-1.1933 0-1.6535 0.2729-0.46019 0.2729-0.46019 0.93109 0 0.5244 0.34247 0.83477 0.34782 0.30501 0.94179 0.30501 0.81871 0 1.311-0.57792 0.49765-0.58327 0.49765-1.5465v-0.21939zm1.9638-0.40668v3.4193h-0.9846v-0.90968q-0.33711 0.54581-0.84012 0.80801-0.503 0.25685-1.2307 0.25685-0.92039 0-1.4662-0.5137-0.54046-0.51905-0.54046-1.3859 0-1.0114 0.67424-1.5251 0.67959-0.5137 2.0227-0.5137h1.3806v-0.09632q0-0.67959-0.44949-1.0488-0.44414-0.37458-1.2522-0.37458-0.5137 0-1.0006 0.12307t-0.93644 0.36922v-0.90968q0.54046-0.20869 1.0488-0.31036 0.50836-0.10702 0.98995-0.10702 1.3003 0 1.9424 0.67424t0.64213 2.0441z"/>
   <path d="m285.53 10.512v3.6173h-0.9846v-3.5852q0-0.85082-0.33176-1.2736-0.33177-0.42273-0.9953-0.42273-0.79731 0-1.2575 0.50835-0.46019 0.50835-0.46019 1.3859v3.3872h-0.98995v-5.9932h0.98995v0.93109q0.35317-0.54046 0.82942-0.80801 0.4816-0.26755 1.1077-0.26755 1.0328 0 1.5625 0.64213 0.52976 0.63678 0.52976 1.8782z"/>
   <path d="m286.99 10.689h2.8842v0.87758h-2.8842z"/>
   <path d="m295.27 8.3132v0.93109q-0.41738-0.21404-0.86687-0.32106-0.44949-0.10702-0.93109-0.10702-0.7331 0-1.1023 0.22475-0.36388 0.22475-0.36388 0.67424 0 0.34247 0.26221 0.54046 0.2622 0.19264 1.0542 0.36922l0.33712 0.07492q1.0488 0.22474 1.4876 0.63678 0.44414 0.40668 0.44414 1.1398 0 0.83477-0.66353 1.3217-0.65818 0.48695-1.814 0.48695-0.4816 0-1.006-0.09632-0.51905-0.09097-1.097-0.27826v-1.0167q0.54581 0.28361 1.0756 0.42809 0.52976 0.13913 1.0488 0.13913 0.69564 0 1.0702-0.23545 0.37457-0.2408 0.37457-0.67424 0-0.40133-0.2729-0.61537-0.26756-0.21404-1.1826-0.41203l-0.34247-0.08027q-0.91503-0.19264-1.3217-0.58862-0.40668-0.40133-0.40668-1.097 0-0.84547 0.59932-1.3057 0.59932-0.46019 1.7016-0.46019 0.54581 0 1.0274 0.080266t0.88828 0.2408z"/>
   <path d="m298.13 6.435v1.7016h2.028v0.7652h-2.028v3.2535q0 0.7331 0.19799 0.94179 0.20334 0.20869 0.81871 0.20869h1.0114v0.82407h-1.0114q-1.1398 0-1.5732-0.42274-0.43344-0.42809-0.43344-1.5518v-3.2535h-0.7224v-0.7652h0.7224v-1.7016z"/>
   <path d="m304.93 9.057q-0.16589-0.096319-0.36388-0.13913-0.19264-0.04816-0.42808-0.04816-0.83477 0-1.2843 0.54581-0.44414 0.54046-0.44414 1.5572v3.1571h-0.98995v-5.9932h0.98995v0.93109q0.31036-0.54581 0.80801-0.80801 0.49765-0.26755 1.2093-0.26755 0.10167 0 0.22475 0.016053 0.12307 0.010702 0.2729 0.037458z"/>
   <path d="m310.84 10.887v0.4816h-4.527q0.0642 1.0167 0.61002 1.5518 0.55116 0.52976 1.5304 0.52976 0.56721 0 1.097-0.13913 0.53511-0.13913 1.0595-0.41738v0.93109q-0.52975 0.22475-1.0863 0.34247-0.55651 0.11772-1.1291 0.11772-1.4341 0-2.2742-0.83477-0.83477-0.83477-0.83477-2.2582 0-1.4715 0.79196-2.3331 0.79731-0.86687 2.1458-0.86687 1.2094 0 1.9103 0.78126 0.70634 0.77591 0.70634 2.1137zm-0.9846-0.28896q-0.0107-0.80801-0.45484-1.2896-0.43879-0.4816-1.1665-0.4816-0.82406 0-1.3217 0.46554-0.4923 0.46554-0.56721 1.311z"/>
   <path d="m313.43 6.435v1.7016h2.0281v0.7652h-2.0281v3.2535q0 0.7331 0.19799 0.94179 0.20334 0.20869 0.81871 0.20869h1.0114v0.82407h-1.0114q-1.1398 0-1.5732-0.42274-0.43344-0.42809-0.43344-1.5518v-3.2535h-0.72239v-0.7652h0.72239v-1.7016z"/>
   <path d="m321.07 8.3667v0.92038q-0.41738-0.2301-0.84012-0.34247-0.41738-0.11772-0.84547-0.11772-0.95784 0-1.4876 0.61002-0.52975 0.60467-0.52975 1.7016t0.52975 1.707q0.52976 0.60467 1.4876 0.60467 0.42809 0 0.84547-0.11237 0.42274-0.11772 0.84012-0.34782v0.90968q-0.41203 0.19264-0.85617 0.28896-0.43879 0.09632-0.93644 0.09632-1.3538 0-2.1511-0.85082t-0.79731-2.2956q0-1.4662 0.80266-2.3063 0.80801-0.84012 2.21-0.84012 0.45485 0 0.88828 0.096319 0.43344 0.090968 0.84012 0.27826z"/>
   <path d="m327.76 10.512v3.6173h-0.98459v-3.5852q0-0.85082-0.33177-1.2736-0.33177-0.42273-0.9953-0.42273-0.79731 0-1.2575 0.50835-0.46019 0.50835-0.46019 1.3859v3.3872h-0.98995v-8.3263h0.98995v3.2642q0.35317-0.54046 0.82941-0.80801 0.4816-0.26755 1.1077-0.26755 1.0328 0 1.5625 0.64213 0.52975 0.63678 0.52975 1.8782z"/>
   <path d="m329.23 10.689h2.8842v0.87758h-2.8842z"/>
   <path d="m336.41 11.117q-1.1933 0-1.6535 0.2729-0.4602 0.2729-0.4602 0.93109 0 0.5244 0.34247 0.83477 0.34782 0.30501 0.94179 0.30501 0.81872 0 1.311-0.57792 0.49765-0.58327 0.49765-1.5465v-0.21939zm1.9638-0.40668v3.4193h-0.9846v-0.90968q-0.33711 0.54581-0.84011 0.80801-0.50301 0.25685-1.2308 0.25685-0.92039 0-1.4662-0.5137-0.54045-0.51905-0.54045-1.3859 0-1.0114 0.67423-1.5251 0.67959-0.5137 2.0227-0.5137h1.3806v-0.09632q0-0.67959-0.44949-1.0488-0.44414-0.37458-1.2522-0.37458-0.5137 0-1.0006 0.12307t-0.93644 0.36922v-0.90968q0.54046-0.20869 1.0488-0.31036 0.50836-0.10702 0.98995-0.10702 1.3003 0 1.9424 0.67424t0.64213 2.0441z"/>
   <path d="m344.71 8.3667v0.92038q-0.41739-0.2301-0.84012-0.34247-0.41738-0.11772-0.84547-0.11772-0.95784 0-1.4876 0.61002-0.52976 0.60467-0.52976 1.7016t0.52976 1.707q0.52976 0.60467 1.4876 0.60467 0.42809 0 0.84547-0.11237 0.42273-0.11772 0.84012-0.34782v0.90968q-0.41203 0.19264-0.85617 0.28896-0.43879 0.09632-0.93644 0.09632-1.3538 0-2.1511-0.85082t-0.79731-2.2956q0-1.4662 0.80266-2.3063 0.80801-0.84012 2.21-0.84012 0.45484 0 0.88828 0.096319 0.43344 0.090968 0.84012 0.27826z"/>
   <path d="m347.4 6.435v1.7016h2.0281v0.7652h-2.0281v3.2535q0 0.7331 0.19799 0.94179 0.20334 0.20869 0.81872 0.20869h1.0114v0.82407h-1.0114q-1.1398 0-1.5732-0.42274-0.43344-0.42809-0.43344-1.5518v-3.2535h-0.72239v-0.7652h0.72239v-1.7016z"/>
   <path d="m350.72 8.1366h0.9846v5.9932h-0.9846zm0-2.3331h0.9846v1.2468h-0.9846z"/>
   <path d="m356.09 8.8269q-0.79196 0-1.2522 0.62072-0.4602 0.61537-0.4602 1.6909t0.45484 1.6963q0.4602 0.61537 1.2575 0.61537 0.78661 0 1.2468-0.62072 0.46019-0.62072 0.46019-1.6909 0-1.0649-0.46019-1.6856-0.46019-0.62608-1.2468-0.62608zm0-0.83477q1.2843 0 2.0174 0.83477 0.7331 0.83477 0.7331 2.3117 0 1.4715-0.7331 2.3117-0.73309 0.83477-2.0174 0.83477-1.2896 0-2.0227-0.83477-0.72774-0.84012-0.72774-2.3117 0-1.4769 0.72774-2.3117 0.7331-0.83477 2.0227-0.83477z"/>
   <path d="m365.45 10.512v3.6173h-0.9846v-3.5852q0-0.85082-0.33177-1.2736-0.33176-0.42273-0.9953-0.42273-0.79731 0-1.2575 0.50835-0.46019 0.50835-0.46019 1.3859v3.3872h-0.98995v-5.9932h0.98995v0.93109q0.35317-0.54046 0.82941-0.80801 0.4816-0.26755 1.1077-0.26755 1.0328 0 1.5625 0.64213 0.52976 0.63678 0.52976 1.8782z"/>
  </g>
 </g>
</svg>
